<mxfile host="app.diagrams.net" modified="2024-03-20T09:28:35.544Z" agent="Mozilla/5.0 (Macintosh; Intel Mac OS X 10_15_7) AppleWebKit/537.36 (KHTML, like Gecko) Chrome/122.0.0.0 Safari/537.36" version="24.0.7" etag="7b0oLKKUGrS-ZKpnZ9De" type="github">
  <diagram name="第 1 页" id="pvjlF9dDP8kzv3qRJtm_">
    <mxGraphModel>
      <root>
        <mxCell id="0" />
        <mxCell id="1" parent="0" />
      </root>
    </mxGraphModel>
  </diagram>
</mxfile>
